<svg version="1.1" id="Layer_1" xmlns="http://www.w3.org/2000/svg" xmlns:xlink="http://www.w3.org/1999/xlink" x="0px" y="0px"
	 width="100%" viewBox="0 0 381 132" enable-background="new 0 0 381 132" xml:space="preserve">
<path fill="#FEFEFE" opacity="1.000000" stroke="none" 
	d="
M382.000000,76.000000 
	C382.000000,86.687561 382.000000,97.375122 381.672424,108.393150 
	C381.134338,108.097992 380.966797,107.453903 380.706909,106.849518 
	C376.973633,98.167175 369.565887,93.883255 359.987274,94.852341 
	C351.867218,95.673874 345.247925,102.053360 343.672150,110.576454 
	C342.113251,119.008148 346.126099,126.738129 354.270691,131.093277 
	C355.242493,131.612900 356.093170,132.358917 357.000000,133.000000 
	C341.645782,133.000000 326.291534,133.000000 310.642517,132.691040 
	C321.760315,128.713181 327.556915,118.766479 323.844727,108.003578 
	C322.617096,104.444260 319.887085,101.096695 317.083038,98.462250 
	C313.265869,94.875984 308.430817,95.135315 303.206055,95.568939 
	C292.526550,96.455261 284.627838,105.888802 286.354553,116.556999 
	C287.703430,124.890945 293.434845,129.198212 300.000000,133.000000 
	C284.645782,133.000000 269.291534,133.000000 253.614624,132.674225 
	C264.749664,128.604340 270.400940,118.177032 266.776947,107.466927 
	C263.375610,97.414864 251.996826,92.251495 241.317322,95.914078 
	C230.502502,99.623077 225.345230,113.615273 232.028778,123.380753 
	C234.796143,127.424225 239.938019,129.842575 244.000000,133.000000 
	C228.312439,133.000000 212.624878,133.000000 196.599823,132.667053 
	C207.557358,128.642990 213.209274,118.437538 209.823792,107.846703 
	C206.514648,97.494690 195.113831,92.170685 184.220337,95.890320 
	C175.611115,98.829971 170.297394,108.980743 172.446915,118.075584 
	C174.324020,126.017799 179.944443,130.176285 187.000000,133.000000 
	C125.111809,133.000000 63.223621,133.000000 1.000000,133.000000 
	C1.000000,114.313774 1.000000,95.625549 1.466897,76.423264 
	C11.906525,75.896675 21.896776,76.237648 31.845688,75.744537 
	C38.236858,75.427765 44.893860,74.807236 50.857349,72.698540 
	C63.607449,68.190102 68.856277,52.284142 61.369091,42.580509 
	C59.720860,40.444355 57.404881,38.823418 55.786976,37.326584 
	C57.594128,34.456772 59.719887,32.014843 60.818729,29.175491 
	C65.760429,16.406420 56.479000,3.650381 41.372868,3.078604 
	C27.933508,2.569914 14.458997,2.989895 1.000000,3.000000 
	C0.388556,-0.056054 2.709315,1.038084 3.978791,1.033389 
	C18.250774,0.980606 32.523029,1.000000 46.795208,1.000000 
	C64.884369,1.000000 82.973526,1.000000 101.373161,1.326545 
	C101.078758,1.924908 100.499008,2.301636 99.865379,2.453431 
	C73.949829,8.661840 66.704651,36.725445 76.134697,57.091743 
	C83.354996,72.685562 96.977524,77.464882 113.174011,77.021042 
	C132.330521,76.496094 146.581528,63.385883 148.707443,43.262112 
	C150.650009,24.873758 141.513412,7.889462 122.943634,2.836581 
	C121.254257,2.376901 119.645950,1.619270 118.000000,1.000000 
	C139.687561,1.000000 161.375122,1.000000 183.372437,1.325798 
	C178.500992,4.184724 172.623489,5.863090 168.268707,9.410658 
	C155.009018,20.212484 151.415222,40.173771 158.900391,56.815338 
	C165.519836,71.532188 180.258698,79.085228 198.125443,76.916534 
	C212.943741,75.117859 224.255188,65.500793 226.934601,51.961098 
	C221.885635,50.392460 216.779221,48.805977 211.534958,47.176662 
	C208.966141,55.345684 204.622559,61.045124 196.022018,62.026505 
	C182.807922,63.534328 174.853271,57.546402 172.329239,44.299599 
	C170.003036,32.091084 175.584305,20.452988 185.422165,16.998159 
	C196.276703,13.186295 206.109741,17.504854 211.922089,28.927202 
	C216.910004,26.941183 221.932770,24.941284 227.251526,22.823530 
	C223.574554,13.598570 217.766907,7.185390 208.814606,3.856680 
	C205.922226,2.781216 202.940735,1.945425 200.000000,1.000000 
	C260.562836,1.000000 321.125671,1.000000 382.000000,1.000000 
	C382.000000,25.353342 382.000000,49.708012 381.744904,74.290329 
	C372.798950,53.839710 364.099640,33.165020 355.421021,12.481622 
	C351.355164,2.791617 351.368927,2.971504 341.041199,2.730263 
	C337.258453,2.641903 335.532227,3.915689 334.107300,7.369551 
	C325.615692,27.952179 316.859650,48.425629 308.220947,68.947739 
	C307.348785,71.019615 306.666626,73.171455 305.677979,75.885574 
	C308.377777,75.885574 310.348328,75.885155 312.318878,75.885651 
	C322.997284,75.888329 322.897949,75.843407 327.248962,66.238289 
	C327.879364,64.846619 329.961395,63.286190 331.422546,63.234238 
	C339.569458,62.944561 347.734497,62.995457 355.886719,63.197460 
	C357.193481,63.229836 359.471069,64.468147 359.602814,65.391159 
	C361.197113,76.562737 368.926392,76.848244 377.514954,75.913628 
	C378.989380,75.753181 380.503967,75.961845 382.000000,76.000000 
M237.585403,75.626686 
	C242.648727,75.626686 247.712051,75.626686 253.258026,75.626686 
	C253.258026,66.447937 253.258026,57.873104 253.258026,49.507000 
	C261.188965,47.575066 266.851593,49.210182 270.371674,56.757221 
	C272.097290,60.456997 274.746887,63.914677 277.632477,66.835762 
	C281.074127,70.319809 285.125336,73.238976 289.125305,76.105980 
	C290.033539,76.756950 292.206512,76.735863 293.127991,76.081520 
	C296.598633,73.617065 299.792999,70.763550 302.075897,68.889107 
	C295.288940,61.571846 288.774872,54.548775 282.012207,47.257668 
	C283.836548,46.139923 284.387299,45.778496 284.959686,45.455360 
	C296.093140,39.169895 300.563843,29.977936 297.814148,19.014631 
	C295.551270,9.992323 286.470428,3.342880 274.918823,3.039036 
	C262.620544,2.715551 250.306564,2.988906 237.427658,3.069119 
	C237.257614,3.389322 237.087585,3.709526 236.782974,4.955879 
	C236.828720,27.962708 236.874451,50.969536 236.875076,74.494995 
	C236.940704,74.655640 237.006317,74.816284 237.585403,75.626686 
z"/>
<path fill="#9A9A9A" opacity="1.000000" stroke="none" 
	d="
M1.000000,3.468657 
	C14.458997,2.989895 27.933508,2.569914 41.372868,3.078604 
	C56.479000,3.650381 65.760429,16.406420 60.818729,29.175491 
	C59.719887,32.014843 57.594128,34.456772 55.786976,37.326584 
	C57.404881,38.823418 59.720860,40.444355 61.369091,42.580509 
	C68.856277,52.284142 63.607449,68.190102 50.857349,72.698540 
	C44.893860,74.807236 38.236858,75.427765 31.845688,75.744537 
	C21.896776,76.237648 11.906525,75.896675 1.466897,75.954605 
	C1.000000,51.979103 1.000000,27.958210 1.000000,3.468657 
M36.253086,45.014381 
	C30.026596,45.014381 23.800108,45.014381 17.571136,45.014381 
	C17.571136,50.766930 17.571136,55.674534 17.571136,60.943447 
	C25.323250,60.943447 32.759521,61.024731 40.190937,60.871071 
	C41.584442,60.842258 43.426514,60.256195 44.241516,59.257828 
	C45.807552,57.339470 47.789845,54.911800 47.725292,52.751392 
	C47.661339,50.611076 45.690735,47.997078 43.807667,46.600128 
	C42.129749,45.355366 39.428070,45.490612 36.253086,45.014381 
M18.093676,17.384239 
	C17.719496,21.706270 17.345316,26.028303 16.924582,30.888054 
	C24.168610,30.888054 30.444992,30.987385 36.716618,30.857365 
	C41.956799,30.748734 45.194256,27.889124 45.198387,23.713669 
	C45.202389,19.665464 42.434219,17.316809 36.904720,17.163376 
	C30.930376,16.997601 24.947451,17.140974 18.093676,17.384239 
z"/>
<path fill="#9A9A9A" opacity="1.000000" stroke="none" 
	d="
M117.533142,1.000000 
	C119.645950,1.619270 121.254257,2.376901 122.943634,2.836581 
	C141.513412,7.889462 150.650009,24.873758 148.707443,43.262112 
	C146.581528,63.385883 132.330521,76.496094 113.174011,77.021042 
	C96.977524,77.464882 83.354996,72.685562 76.134697,57.091743 
	C66.704651,36.725445 73.949829,8.661840 99.865379,2.453431 
	C100.499008,2.301636 101.078758,1.924908 101.841820,1.326545 
	C107.022095,1.000000 112.044182,1.000000 117.533142,1.000000 
M91.013863,50.200546 
	C96.052498,59.910236 103.253136,63.449493 115.002495,61.991436 
	C123.462540,60.941570 129.603287,55.104671 131.512329,45.599339 
	C132.221893,42.066315 132.192947,38.287991 131.902618,34.669521 
	C131.068253,24.270510 123.264290,16.699253 113.070518,16.020102 
	C101.150269,15.225924 92.033760,20.766283 90.163200,31.367899 
	C89.137230,37.182682 90.476730,43.414833 91.013863,50.200546 
z"/>
<path fill="#9A9A9A" opacity="1.000000" stroke="none" 
	d="
M382.000000,75.750000 
	C380.503967,75.961845 378.989380,75.753181 377.514954,75.913628 
	C368.926392,76.848244 361.197113,76.562737 359.602814,65.391159 
	C359.471069,64.468147 357.193481,63.229836 355.886719,63.197460 
	C347.734497,62.995457 339.569458,62.944561 331.422546,63.234238 
	C329.961395,63.286190 327.879364,64.846619 327.248962,66.238289 
	C322.897949,75.843407 322.997284,75.888329 312.318878,75.885651 
	C310.348328,75.885155 308.377777,75.885574 305.677979,75.885574 
	C306.666626,73.171455 307.348785,71.019615 308.220947,68.947739 
	C316.859650,48.425629 325.615692,27.952179 334.107300,7.369551 
	C335.532227,3.915689 337.258453,2.641903 341.041199,2.730263 
	C351.368927,2.971504 351.355164,2.791617 355.421021,12.481622 
	C364.099640,33.165020 372.798950,53.839710 381.744904,74.758987 
	C382.000000,75.000000 382.000000,75.500000 382.000000,75.750000 
M336.081207,43.748043 
	C335.624023,45.259060 335.166840,46.770073 334.585297,48.692039 
	C340.997559,48.692039 346.733612,48.692039 353.144409,48.692039 
	C350.025085,40.677120 347.034454,32.992958 343.649017,24.294268 
	C340.923126,31.312284 338.653870,37.154621 336.081207,43.748043 
z"/>
<path fill="#9A9A9A" opacity="1.000000" stroke="none" 
	d="
M199.533142,1.000000 
	C202.940735,1.945425 205.922226,2.781216 208.814606,3.856680 
	C217.766907,7.185390 223.574554,13.598570 227.251526,22.823530 
	C221.932770,24.941284 216.910004,26.941183 211.922089,28.927202 
	C206.109741,17.504854 196.276703,13.186295 185.422165,16.998159 
	C175.584305,20.452988 170.003036,32.091084 172.329239,44.299599 
	C174.853271,57.546402 182.807922,63.534328 196.022018,62.026505 
	C204.622559,61.045124 208.966141,55.345684 211.534958,47.176662 
	C216.779221,48.805977 221.885635,50.392460 226.934601,51.961098 
	C224.255188,65.500793 212.943741,75.117859 198.125443,76.916534 
	C180.258698,79.085228 165.519836,71.532188 158.900391,56.815338 
	C151.415222,40.173771 155.009018,20.212484 168.268707,9.410658 
	C172.623489,5.863090 178.500992,4.184724 183.841095,1.325798 
	C189.022095,1.000000 194.044189,1.000000 199.533142,1.000000 
z"/>
<path fill="#166E03" opacity="1.000000" stroke="none" 
	d="
M244.449982,133.000000 
	C239.938019,129.842575 234.796143,127.424225 232.028778,123.380753 
	C225.345230,113.615273 230.502502,99.623077 241.317322,95.914078 
	C251.996826,92.251495 263.375610,97.414864 266.776947,107.466927 
	C270.400940,118.177032 264.749664,128.604340 253.145966,132.674225 
	C250.299988,133.000000 247.599976,133.000000 244.449982,133.000000 
z"/>
<path fill="#FEC904" opacity="1.000000" stroke="none" 
	d="
M357.454102,133.000000 
	C356.093170,132.358917 355.242493,131.612900 354.270691,131.093277 
	C346.126099,126.738129 342.113251,119.008148 343.672150,110.576454 
	C345.247925,102.053360 351.867218,95.673874 359.987274,94.852341 
	C369.565887,93.883255 376.973633,98.167175 380.706909,106.849518 
	C380.966797,107.453903 381.134338,108.097992 381.672424,108.861809 
	C382.000000,112.030594 382.000000,115.061188 381.685913,118.692451 
	C378.950867,126.346672 373.573486,130.300400 367.000000,133.000000 
	C363.969391,133.000000 360.938812,133.000000 357.454102,133.000000 
z"/>
<path fill="#700310" opacity="1.000000" stroke="none" 
	d="
M300.454102,133.000000 
	C293.434845,129.198212 287.703430,124.890945 286.354553,116.556999 
	C284.627838,105.888802 292.526550,96.455261 303.206055,95.568939 
	C308.430817,95.135315 313.265869,94.875984 317.083038,98.462250 
	C319.887085,101.096695 322.617096,104.444260 323.844727,108.003578 
	C327.556915,118.766479 321.760315,128.713181 310.173828,132.691040 
	C306.969391,133.000000 303.938812,133.000000 300.454102,133.000000 
z"/>
<path fill="#0D7170" opacity="1.000000" stroke="none" 
	d="
M187.449982,133.000000 
	C179.944443,130.176285 174.324020,126.017799 172.446915,118.075584 
	C170.297394,108.980743 175.611115,98.829971 184.220337,95.890320 
	C195.113831,92.170685 206.514648,97.494690 209.823792,107.846703 
	C213.209274,118.437538 207.557358,128.642990 196.131165,132.667053 
	C193.299988,133.000000 190.599976,133.000000 187.449982,133.000000 
z"/>
<path fill="#FEFDF7" opacity="1.000000" stroke="none" 
	d="
M367.472656,133.000000 
	C373.573486,130.300400 378.950867,126.346672 381.685913,119.146561 
	C382.000000,123.593750 382.000000,128.187500 382.000000,133.000000 
	C377.316559,133.000000 372.630951,133.000000 367.472656,133.000000 
z"/>
<path fill="#9A9A9A" opacity="1.000000" stroke="none" 
	d="
M236.920197,73.976364 
	C236.874451,50.969536 236.828720,27.962708 237.083984,4.382727 
	C237.589798,3.540272 237.794617,3.270970 237.999451,3.001669 
	C250.306564,2.988906 262.620544,2.715551 274.918823,3.039036 
	C286.470428,3.342880 295.551270,9.992323 297.814148,19.014631 
	C300.563843,29.977936 296.093140,39.169895 284.959686,45.455360 
	C284.387299,45.778496 283.836548,46.139923 282.012207,47.257668 
	C288.774872,54.548775 295.288940,61.571846 302.075897,68.889107 
	C299.792999,70.763550 296.598633,73.617065 293.127991,76.081520 
	C292.206512,76.735863 290.033539,76.756950 289.125305,76.105980 
	C285.125336,73.238976 281.074127,70.319809 277.632477,66.835762 
	C274.746887,63.914677 272.097290,60.456997 270.371674,56.757221 
	C266.851593,49.210182 261.188965,47.575066 253.258026,49.507000 
	C253.258026,57.873104 253.258026,66.447937 253.258026,75.626686 
	C247.712051,75.626686 242.648727,75.626686 237.484039,75.196732 
	C237.228500,74.503311 237.074356,74.239838 236.920197,73.976364 
M264.474365,34.001568 
	C267.298492,33.978588 270.143951,34.167439 272.942078,33.885906 
	C277.864807,33.390598 281.590790,29.917093 281.877441,25.921719 
	C282.178955,21.719332 279.269928,18.152565 273.683380,17.665392 
	C266.988068,17.081528 260.203003,17.527512 253.333649,17.527512 
	C253.333649,23.081577 253.333649,28.300318 253.333649,34.001568 
	C256.922729,34.001568 260.209106,34.001568 264.474365,34.001568 
z"/>
<path fill="#949494" opacity="1.000000" stroke="none" 
	d="
M236.897644,74.235672 
	C237.074356,74.239838 237.228500,74.503311 237.227295,74.871857 
	C237.006317,74.816284 236.940704,74.655640 236.897644,74.235672 
z"/>
<path fill="#949494" opacity="1.000000" stroke="none" 
	d="
M237.713562,3.035393 
	C237.794617,3.270970 237.589798,3.540272 237.151260,3.919652 
	C237.087585,3.709526 237.257614,3.389322 237.713562,3.035393 
z"/>
<path fill="#FDFDFD" opacity="1.000000" stroke="none" 
	d="
M36.715645,45.015610 
	C39.428070,45.490612 42.129749,45.355366 43.807667,46.600128 
	C45.690735,47.997078 47.661339,50.611076 47.725292,52.751392 
	C47.789845,54.911800 45.807552,57.339470 44.241516,59.257828 
	C43.426514,60.256195 41.584442,60.842258 40.190937,60.871071 
	C32.759521,61.024731 25.323250,60.943447 17.571136,60.943447 
	C17.571136,55.674534 17.571136,50.766930 17.571136,45.014381 
	C23.800108,45.014381 30.026596,45.014381 36.715645,45.015610 
z"/>
<path fill="#FAFAFA" opacity="1.000000" stroke="none" 
	d="
M18.530972,17.266869 
	C24.947451,17.140974 30.930376,16.997601 36.904720,17.163376 
	C42.434219,17.316809 45.202389,19.665464 45.198387,23.713669 
	C45.194256,27.889124 41.956799,30.748734 36.716618,30.857365 
	C30.444992,30.987385 24.168610,30.888054 16.924582,30.888054 
	C17.345316,26.028303 17.719496,21.706270 18.530972,17.266869 
z"/>
<path fill="#FEFEFE" opacity="1.000000" stroke="none" 
	d="
M90.881737,49.829666 
	C90.476730,43.414833 89.137230,37.182682 90.163200,31.367899 
	C92.033760,20.766283 101.150269,15.225924 113.070518,16.020102 
	C123.264290,16.699253 131.068253,24.270510 131.902618,34.669521 
	C132.192947,38.287991 132.221893,42.066315 131.512329,45.599339 
	C129.603287,55.104671 123.462540,60.941570 115.002495,61.991436 
	C103.253136,63.449493 96.052498,59.910236 90.881737,49.829666 
z"/>
<path fill="#FBFBFB" opacity="1.000000" stroke="none" 
	d="
M336.232910,43.372501 
	C338.653870,37.154621 340.923126,31.312284 343.649017,24.294268 
	C347.034454,32.992958 350.025085,40.677120 353.144409,48.692039 
	C346.733612,48.692039 340.997559,48.692039 334.585297,48.692039 
	C335.166840,46.770073 335.624023,45.259060 336.232910,43.372501 
z"/>
<path fill="#FCFCFC" opacity="1.000000" stroke="none" 
	d="
M263.984924,34.001568 
	C260.209106,34.001568 256.922729,34.001568 253.333649,34.001568 
	C253.333649,28.300318 253.333649,23.081577 253.333649,17.527512 
	C260.203003,17.527512 266.988068,17.081528 273.683380,17.665392 
	C279.269928,18.152565 282.178955,21.719332 281.877441,25.921719 
	C281.590790,29.917093 277.864807,33.390598 272.942078,33.885906 
	C270.143951,34.167439 267.298492,33.978588 263.984924,34.001568 
z"/>
</svg>